HIERARCHY
ROOT RootJoint
{
    OFFSET   0.000000   0.000000   0.000000
    CHANNELS 6 Xposition Yposition Zposition Xrotation Yrotation Zrotation
    JOINT pelvis_lowerback
    {
        OFFSET   0.000000   0.093605   0.000000
        CHANNELS 3 Xrotation Yrotation Zrotation
        JOINT lowerback_torso
        {
            OFFSET   0.000000   0.100000   0.000000
            CHANNELS 3 Xrotation Yrotation Zrotation
            JOINT torso_head
            {
                OFFSET   0.000000   0.282350   0.000000
                CHANNELS 3 Xrotation Yrotation Zrotation
                End Site
                {
                    OFFSET   0.000000   0.192650   0.000000
                }
            }
            JOINT rTorso_Clavicle
            {
                OFFSET  -0.001000   0.157500   0.000000
                CHANNELS 3 Xrotation Yrotation Zrotation
                JOINT rShoulder
                {
                    OFFSET  -0.117647   0.000000   0.000000
                    CHANNELS 3 Xrotation Yrotation Zrotation
                    JOINT rElbow
                    {
                        OFFSET  -0.245000   0.000000   0.000000
                        CHANNELS 3 Xrotation Yrotation Zrotation
                        JOINT rWrist
                        {
                            OFFSET  -0.240000   0.000000   0.000000
                            CHANNELS 3 Xrotation Yrotation Zrotation
                            End Site
                            {
                                OFFSET  -0.116353  -0.002500   0.000000
                            }
                        }
                    }
                }
            }
            JOINT lTorso_Clavicle
            {
                OFFSET   0.001000   0.157500   0.000000
                CHANNELS 3 Xrotation Yrotation Zrotation
                JOINT lShoulder
                {
                    OFFSET   0.117647   0.000000   0.000000
                    CHANNELS 3 Xrotation Yrotation Zrotation
                    JOINT lElbow
                    {
                        OFFSET   0.245000   0.000000   0.000000
                        CHANNELS 3 Xrotation Yrotation Zrotation
                        JOINT lWrist
                        {
                            OFFSET   0.240000   0.000000   0.000000
                            CHANNELS 3 Xrotation Yrotation Zrotation
                            End Site
                            {
                                OFFSET   0.116353  -0.002500   0.000000
                            }
                        }
                    }
                }
            }
        }
    }
    JOINT rHip
    {
        OFFSET  -0.100000  -0.051395   0.000000
        CHANNELS 3 Xrotation Yrotation Zrotation
        JOINT rKnee
        {
            OFFSET   0.000000  -0.410000   0.000000
            CHANNELS 3 Xrotation Yrotation Zrotation
            JOINT rAnkle
            {
                OFFSET   0.000000  -0.390000   0.000000
                CHANNELS 3 Xrotation Yrotation Zrotation
                JOINT rToeJoint
                {
                    OFFSET   0.000000  -0.050000   0.130000
                    CHANNELS 3 Xrotation Yrotation Zrotation
                    End Site
                    {
                        OFFSET  -0.010000   0.002000   0.060000
                    }
                }
            }
        }
    }
    JOINT lHip
    {
        OFFSET   0.100000  -0.051395   0.000000
        CHANNELS 3 Xrotation Yrotation Zrotation
        JOINT lKnee
        {
            OFFSET   0.000000  -0.410000   0.000000
            CHANNELS 3 Xrotation Yrotation Zrotation
            JOINT lAnkle
            {
                OFFSET   0.000000  -0.390000   0.000000
                CHANNELS 3 Xrotation Yrotation Zrotation
                JOINT lToeJoint
                {
                    OFFSET   0.000000  -0.050000   0.130000
                    CHANNELS 3 Xrotation Yrotation Zrotation
                    End Site
                    {
                        OFFSET   0.010000   0.002000   0.060000
                    }
                }
            }
        }
    }
}
MOTION
Frames: 7
Frame Time:   0.008333
 -2.271405   0.923741   4.191024 -11.370553 -76.392037 -17.309684  25.454734  -0.271150   2.580556   6.021766   0.601879   0.175470   1.248394  -0.030628  -2.004756   1.540172   7.125282  -5.340780  -2.857141   8.619837  49.161501 179.998893  74.502888 179.999656   1.839969   2.349998  -5.357160   2.912686  -5.459095   6.334737   7.596255  -8.856130 -44.122529 179.968949 -74.891840 179.977864   0.342763  -4.491002   5.392342 -42.514466  -4.386723  -8.770976  83.600809   0.003002  -0.049416  17.213163   2.059948   7.465196 -10.376556  -0.007576  -0.028019 -16.473188   0.060946  11.419320  42.965039  -0.004370   0.008203   7.232721   2.289642  -4.693142 -46.938518  -0.029031   0.004821
 -2.270219   0.928641   4.192264 -10.658520 -76.321444 -16.725802  25.767664  -0.348214   2.898945   6.030435   0.409113   0.324250   1.147064  -0.122512  -2.092771   1.613364   7.074480  -5.399431  -2.569582   8.441722  49.275079 179.999119  74.520213 179.999633   1.845909   2.203815  -5.193088   2.791339  -5.674709   6.520105   7.094262  -9.090501 -43.973730 179.971821 -74.689330 179.980120   0.348257  -4.455011   5.239834 -43.516889  -4.393304  -8.861113  84.049613   0.002062  -0.039644  16.506401   1.948748   7.641148  -9.549717  -0.007435  -0.022371 -16.400570   0.036724  11.515109  41.951247  -0.003904   0.005858   8.927719   1.754513  -5.198477 -46.550896  -0.021050   0.004358
 -2.269028   0.934329   4.193473  -9.557983 -76.264166 -15.658831  25.995425  -0.383338   3.207045   6.018895   0.240258   0.431338   1.061921  -0.208633  -2.187791   1.696145   7.000131  -5.507115  -2.282747   8.268981  49.369862 179.999307  74.525189 179.999671   1.850132   2.075904  -5.005830   2.688774  -5.852933   6.722836   6.636042  -9.310680 -43.842349 179.974393 -74.476507 179.982238   0.357680  -4.499025   5.076573 -44.385831  -4.411032  -8.848225  84.097138   0.001561  -0.031659  15.827218   1.840342   7.802561  -8.815315  -0.007246  -0.016581 -16.400493   0.030155  11.499269  40.767208  -0.003553   0.003964  11.079494   1.156770  -5.577409 -46.240793  -0.015266   0.003517
 -2.267983   0.940238   4.194732  -8.281129 -76.214232 -14.373848  26.142646  -0.390572   3.540519   5.977925   0.102470   0.534688   0.988754  -0.287517  -2.278777   1.771663   6.910435  -5.657714  -2.011569   8.099867  49.436346 179.999429  74.521798 179.999768   1.855677   1.973523  -4.815423   2.605478  -5.987529   6.935140   6.223031  -9.506410 -43.721333 179.976962 -74.265267 179.984515   0.370127  -4.592556   4.910416 -45.162160  -4.470647  -8.742804  84.058309   0.001276  -0.025414  15.187984   1.738384   7.952307  -8.150432  -0.007145  -0.011412 -16.399964   0.039040  11.422195  39.471317  -0.003344   0.002565  13.396483   0.581040  -5.857309 -45.992695  -0.011116   0.002711
 -2.267130   0.946046   4.196076  -6.931367 -76.162493 -12.990294  26.218598  -0.380185   3.902789   5.902369  -0.008034   0.651043   0.921863  -0.360105  -2.361168   1.835508   6.812641  -5.836543  -1.760638   7.935028  49.479446 179.999517  74.512400 179.999880   1.863219   1.897543  -4.647012   2.536521  -6.085523   7.153644   5.849248  -9.677588 -43.605976 179.979556 -74.061080 179.986953   0.383876  -4.708113   4.755123 -45.858099  -4.568629  -8.568779  84.023633   0.001065  -0.020432  14.590833   1.643278   8.091657  -7.541465  -0.007073  -0.007055 -16.385741   0.061483  11.304030  38.126929  -0.003275   0.001532  15.747954   0.040309  -6.060964 -45.794201  -0.008123   0.002039
 -2.266454   0.951735   4.197448  -5.575009 -76.107862 -11.563662  26.247088  -0.356923   4.266598   5.797429  -0.095220   0.779649   0.855873  -0.427141  -2.433905   1.887434   6.717514  -6.019503  -1.531850   7.778302  49.510667 179.999593  74.500321 179.999975   1.872625   1.842376  -4.509326   2.474872  -6.158906   7.373421   5.506124  -9.826674 -43.491724 179.982106 -73.869056 179.989386   0.398021  -4.824162   4.626035 -46.474687  -4.691474  -8.345527  84.001418   0.000888  -0.016422  14.034236   1.554272   8.221174  -6.980058  -0.007025  -0.003461 -16.367223   0.081222  11.120486  36.847907  -0.003314   0.001087  17.976572  -0.401854  -6.058683 -45.635390  -0.006126   0.001388
 -2.265970   0.957116   4.198876  -4.238414 -76.051009 -10.135141  26.223305  -0.323234   4.644414   5.665901  -0.161654   0.920551   0.792822  -0.489014  -2.499084   1.930012   6.624797  -6.208608  -1.322220   7.630325  49.531415 179.999669  74.484903 -179.999951   1.883103   1.808481  -4.392384   2.420269  -6.210595   7.593896   5.191338  -9.957751 -43.381050 179.984519 -73.686534 179.991730   0.412139  -4.942460   4.516977 -47.023047  -4.837657  -8.083918  84.002792   0.000701  -0.013133  13.515703   1.471292   8.341856  -6.462777  -0.006965  -0.000607 -16.333745   0.109473  10.913563  35.576806  -0.003339   0.000788  20.170569  -0.821954  -6.058757 -45.508335  -0.004607   0.000931
